<svg width="120" height="120" viewBox="0 0 120 120" fill="none" xmlns="http://www.w3.org/2000/svg">
  <rect width="120" height="120" rx="24" fill="url(#paint0_radial)"/>
  <circle cx="60" cy="60" r="36" fill="white" fill-opacity="0.1"/>
  <path d="M38 76C41.5 70 45.5 62 49 52C52.5 42 57.5 38 63 38C68.5 38 72.5 41.5 74.5 48.5C76.5 55.5 77.5 64 77.5 74H70.5C70.5 64.5 69.5 56.5 67.7 50.7C65.9 44.9 63.1 42 59.2 42C55.9 42 53 44.4 50.4 49.9C47.8 55.4 44.8 61.8 41.4 69C45.1 67.3 49.1 66.5 53.5 66.5C61.5 66.5 67.5 69.5 71.5 75.5L66.5 80.5C63.5 76 59 73.8 53 73.8C48.4 73.8 43.9 75.1 39.6 77.8L38 76Z" fill="white"/>
  <defs>
    <radialGradient id="paint0_radial" cx="0" cy="0" r="1" gradientUnits="userSpaceOnUse" gradientTransform="translate(28 24) rotate(45) scale(120)">
      <stop stop-color="#06B6D4"/>
      <stop offset="0.5" stop-color="#8B5CF6"/>
      <stop offset="1" stop-color="#EC4899"/>
    </radialGradient>
  </defs>
</svg>

