<svg width="120" height="120" viewBox="0 0 120 120" fill="none" xmlns="http://www.w3.org/2000/svg">
  <rect width="120" height="120" rx="24" fill="#0B1220"/>
  <rect x="18" y="18" width="84" height="84" rx="16" stroke="#1E293B" stroke-width="4"/>
  <path d="M40 82V38H50V73H72V82H40Z" fill="#38BDF8"/>
  <path d="M80.5 67.5C82.5 67.5 84.3 66.8 85.8 65.5C87.3 64.2 88 62.4 88 60.1C88 58 87.4 56.1 86.2 54.6C85 53.1 83.1 52.4 80.4 52.4C78.2 52.4 76.5 53 75.3 54.1C74.1 55.2 73.3 56.7 72.9 58.6L64.6 58.3C65 54.3 66.6 51.2 69.3 49C72 46.8 75.7 45.7 80.2 45.7C84.3 45.7 87.7 46.9 90.4 49.3C93.1 51.7 94.4 55.2 94.4 59.7C94.4 64.2 93 67.8 90.2 70.6C87.4 73.4 83.5 74.8 78.5 74.8C73.6 74.8 69.4 73.4 66 70.6L70.7 64.7C72 65.8 73.3 66.6 74.8 67.1C76.3 67.6 78.2 67.8 80.5 67.8V67.5Z" fill="#38BDF8"/>
</svg>

